<svg width="370" height="524" viewBox="0 0 370 524" fill="none" xmlns="http://www.w3.org/2000/svg" xmlns:xlink="http://www.w3.org/1999/xlink">
<path d="M119.168,196C119.168,257.856 92.305,308 59.168,308C26.031,308 -0.832,257.856 -0.832,196C-0.832,134.144 48.001,-72 59.168,84C92.305,84 119.168,134.144 119.168,196Z" fill="#F4D7D7"/>
<path d="M368.316,172C368.316,233.857 323.138,356.001 290.001,356.001C256.864,356.001 248.316,233.857 248.316,172C248.316,110.144 256.864,8 290.001,8C320.001,-34 368.316,110.144 368.316,172Z" fill="#F4D7D7"/>
<path d="M282,281C282,316.899 264.091,346 242,346C219.909,346 202,316.899 202,281C202,245.101 219.909,216 242,216C264.091,216 282,245.101 282,281Z" fill="#F4D7D7"/>
<path d="M158,459C158,494.899 140.091,524 118,524C95.909,524 78,494.899 78,459C78,423.101 95.909,394 118,394C140.091,394 158,423.101 158,459Z" fill="#F4D7D7"/>
<path d="M182,281C182,316.899 152.091,450 130,450C107.909,450 102,316.899 102,281C102,245.101 119.909,216 142,216C164.091,216 182,245.101 182,281Z" fill="#F4D7D7"/>
</svg>
