<svg width="58" height="58" viewBox="0 0 58 58" fill="none" xmlns="http://www.w3.org/2000/svg" xmlns:xlink="http://www.w3.org/1999/xlink">
<path d="M19.936,22.749C21.086,21.311 20.853,19.214 19.416,18.064C17.978,16.914 15.88,17.147 14.73,18.584L19.936,22.749ZM4,37.333L1.397,35.251C0.423,36.468 0.423,38.198 1.397,39.416L4,37.333ZM14.73,56.082C15.88,57.52 17.978,57.753 19.416,56.603C20.853,55.453 21.086,53.355 19.936,51.918L14.73,56.082ZM40.667,37.333L40.667,40.667L40.667,37.333ZM40.667,4L40.667,0.667L40.667,4ZM37.333,0.667C35.492,0.667 34,2.159 34,4C34,5.841 35.492,7.333 37.333,7.333L37.333,0.667ZM14.73,18.584L1.397,35.251L6.603,39.416L19.936,22.749L14.73,18.584ZM1.397,39.416L14.73,56.082L19.936,51.918L6.603,35.251L1.397,39.416ZM4,40.667L40.667,40.667L40.667,34L4,34L4,40.667ZM40.667,40.667C45.358,40.667 49.659,38.332 52.698,34.534L47.492,30.369C45.53,32.822 43.048,34 40.667,34L40.667,40.667ZM52.698,34.534C55.721,30.755 57.333,25.76 57.333,20.667L50.667,20.667C50.667,24.414 49.47,27.897 47.492,30.369L52.698,34.534ZM57.333,20.667C57.333,15.573 55.721,10.578 52.698,6.799L47.492,10.964C49.47,13.436 50.667,16.919 50.667,20.667L57.333,20.667ZM52.698,6.799C49.659,3.001 45.358,0.667 40.667,0.667L40.667,7.333C43.048,7.333 45.53,8.511 47.492,10.964L52.698,6.799ZM40.667,0.667L37.333,0.667L37.333,7.333L40.667,7.333L40.667,0.667Z" fill="#111111"/>
</svg>
