<svg width="56" height="56" viewBox="0 0 56 56" fill="none" xmlns="http://www.w3.org/2000/svg" xmlns:xlink="http://www.w3.org/1999/xlink">
<path d="M52.95,55.18L32.077,34.307C30.41,35.727 28.493,36.825 26.327,37.603C24.16,38.381 21.982,38.77 19.793,38.77C14.456,38.77 9.938,36.922 6.24,33.227C2.542,29.529 0.693,25.012 0.693,19.677C0.693,14.341 2.54,9.822 6.233,6.12C9.929,2.415 14.444,0.563 19.78,0.563C25.118,0.563 29.638,2.412 33.34,6.11C37.042,9.808 38.893,14.327 38.893,19.667C38.893,21.982 38.483,24.223 37.663,26.39C36.841,28.557 35.763,30.41 34.43,31.95L55.303,52.82L52.95,55.18ZM19.793,35.433C24.216,35.433 27.95,33.911 30.997,30.867C34.041,27.822 35.563,24.088 35.563,19.663C35.563,15.241 34.041,11.508 30.997,8.463C27.952,5.419 24.219,3.897 19.797,3.897C15.374,3.897 11.64,5.419 8.593,8.463C5.549,11.508 4.027,15.241 4.027,19.663C4.027,24.085 5.549,27.819 8.593,30.863C11.638,33.908 15.371,35.433 19.793,35.433Z" fill="#111111"/>
</svg>
