<svg width="80" height="50" viewBox="0 0 80 50" fill="none" xmlns="http://www.w3.org/2000/svg" xmlns:xlink="http://www.w3.org/1999/xlink">
<path d="M14.35,23.656L24.2,33.506C24.568,33.85 24.864,34.264 25.069,34.724C25.274,35.184 25.384,35.68 25.393,36.184C25.402,36.687 25.309,37.188 25.121,37.654C24.932,38.121 24.651,38.546 24.295,38.902C23.939,39.258 23.515,39.538 23.048,39.727C22.581,39.916 22.081,40.008 21.577,39.999C21.074,39.991 20.577,39.88 20.117,39.675C19.657,39.47 19.243,39.175 18.9,38.806L2.65,22.556L0,19.906L2.65,17.256L18.9,1.006C19.611,0.344 20.551,-0.017 21.523,0.001C22.494,0.018 23.421,0.411 24.108,1.098C24.795,1.785 25.189,2.712 25.206,3.684C25.223,4.655 24.862,5.596 24.2,6.306L14.35,16.156L63.75,16.156C68.06,16.156 72.193,17.869 75.24,20.916C78.288,23.963 80,28.097 80,32.406C80,36.716 78.288,40.849 75.24,43.897C72.193,46.944 68.06,48.656 63.75,48.656L53.75,48.656C52.755,48.656 51.802,48.261 51.098,47.558C50.395,46.855 50,45.901 50,44.906C50,43.912 50.395,42.958 51.098,42.255C51.802,41.552 52.755,41.156 53.75,41.156L63.75,41.156C66.071,41.156 68.296,40.235 69.937,38.594C71.578,36.953 72.5,34.727 72.5,32.406C72.5,30.086 71.578,27.86 69.937,26.219C68.296,24.578 66.071,23.656 63.75,23.656L14.35,23.656Z" clip-rule="evenodd" fill-rule="evenodd" fill="#111111"/>
</svg>
