<svg width="56" height="48" viewBox="0 0 56 48" fill="none" xmlns="http://www.w3.org/2000/svg" xmlns:xlink="http://www.w3.org/1999/xlink">
<path d="M18.326,19.637C19.644,18.351 19.671,16.241 18.386,14.923C17.101,13.605 14.99,13.578 13.672,14.863L18.326,19.637ZM2.666,30.25L0.339,27.863C-0.304,28.491 -0.667,29.351 -0.667,30.25C-0.667,31.149 -0.304,32.009 0.339,32.637L2.666,30.25ZM13.672,45.637C14.99,46.922 17.101,46.895 18.386,45.577C19.671,44.259 19.644,42.148 18.326,40.863L13.672,45.637ZM39.333,30.25L39.333,33.583L39.333,30.25ZM39.333,4.25L39.333,0.917L39.333,4.25ZM35.999,0.917C34.158,0.917 32.666,2.409 32.666,4.25C32.666,6.091 34.158,7.583 35.999,7.583L35.999,0.917ZM13.672,14.863L0.339,27.863L4.993,32.637L18.326,19.637L13.672,14.863ZM0.339,32.637L13.672,45.637L18.326,40.863L4.993,27.863L0.339,32.637ZM2.666,33.583L39.333,33.583L39.333,26.917L2.666,26.917L2.666,33.583ZM39.333,33.583C43.726,33.583 47.956,31.882 51.088,28.829L46.434,24.056C44.564,25.878 42.012,26.917 39.333,26.917L39.333,33.583ZM51.088,28.829C54.222,25.773 55.999,21.609 55.999,17.25L49.333,17.25C49.333,19.786 48.3,22.236 46.434,24.056L51.088,28.829ZM55.999,17.25C55.999,12.891 54.222,8.727 51.088,5.671L46.434,10.444C48.3,12.264 49.333,14.714 49.333,17.25L55.999,17.25ZM51.088,5.671C47.956,2.618 43.726,0.917 39.333,0.917L39.333,7.583C42.012,7.583 44.564,8.622 46.434,10.444L51.088,5.671ZM39.333,0.917L35.999,0.917L35.999,7.583L39.333,7.583L39.333,0.917Z" fill="#111111"/>
</svg>
