<svg width="56" height="48" viewBox="0 0 56 48" fill="none" xmlns="http://www.w3.org/2000/svg" xmlns:xlink="http://www.w3.org/1999/xlink">
<path d="M18.327,19.637C19.645,18.351 19.672,16.241 18.387,14.923C17.102,13.605 14.991,13.578 13.673,14.863L18.327,19.637ZM2.667,30.25L0.34,27.863C-0.303,28.491 -0.666,29.351 -0.666,30.25C-0.666,31.149 -0.303,32.009 0.34,32.637L2.667,30.25ZM13.673,45.637C14.991,46.922 17.102,46.895 18.387,45.577C19.672,44.259 19.645,42.148 18.327,40.863L13.673,45.637ZM39.334,30.25L39.334,33.583L39.334,30.25ZM39.334,4.25L39.334,0.917L39.334,4.25ZM36,0.917C34.159,0.917 32.667,2.409 32.667,4.25C32.667,6.091 34.159,7.583 36,7.583L36,0.917ZM13.673,14.863L0.34,27.863L4.994,32.637L18.327,19.637L13.673,14.863ZM0.34,32.637L13.673,45.637L18.327,40.863L4.994,27.863L0.34,32.637ZM2.667,33.583L39.334,33.583L39.334,26.917L2.667,26.917L2.667,33.583ZM39.334,33.583C43.727,33.583 47.957,31.882 51.089,28.829L46.435,24.056C44.565,25.878 42.013,26.917 39.334,26.917L39.334,33.583ZM51.089,28.829C54.223,25.773 56,21.609 56,17.25L49.334,17.25C49.334,19.786 48.301,22.236 46.435,24.056L51.089,28.829ZM56,17.25C56,12.891 54.223,8.727 51.089,5.671L46.435,10.444C48.301,12.264 49.334,14.714 49.334,17.25L56,17.25ZM51.089,5.671C47.957,2.618 43.727,0.917 39.334,0.917L39.334,7.583C42.013,7.583 44.565,8.622 46.435,10.444L51.089,5.671ZM39.334,0.917L36,0.917L36,7.583L39.334,7.583L39.334,0.917Z" fill="#111111"/>
</svg>
