<svg width="66" height="68" viewBox="0 0 66 68" fill="none" xmlns="http://www.w3.org/2000/svg" xmlns:xlink="http://www.w3.org/1999/xlink">
<path d="M52.667,53.999C54.435,53.999 56.131,54.702 57.381,55.952C58.632,57.202 59.334,58.898 59.334,60.666C59.334,62.434 58.632,64.13 57.381,65.38C56.131,66.63 54.435,67.333 52.667,67.333C50.899,67.333 49.204,66.63 47.953,65.38C46.703,64.13 46.001,62.434 46.001,60.666C46.001,56.966 48.967,53.999 52.667,53.999ZM-0.666,0.666L10.234,0.666L13.367,7.333L62.667,7.333C63.551,7.333 64.399,7.684 65.024,8.309C65.649,8.934 66.001,9.782 66.001,10.666C66.001,11.233 65.834,11.799 65.601,12.333L53.667,33.899C52.534,35.933 50.334,37.333 47.834,37.333L23.001,37.333L20.001,42.766L19.901,43.166C19.901,43.387 19.988,43.599 20.145,43.755C20.301,43.912 20.513,43.999 20.734,43.999L59.334,43.999L59.334,50.666L19.334,50.666C17.566,50.666 15.87,49.964 14.62,48.713C13.37,47.463 12.667,45.767 12.667,43.999C12.667,42.833 12.967,41.733 13.467,40.799L18.001,32.633L6.001,7.333L-0.666,7.333L-0.666,0.666ZM19.334,53.999C21.102,53.999 22.798,54.702 24.048,55.952C25.298,57.202 26.001,58.898 26.001,60.666C26.001,62.434 25.298,64.13 24.048,65.38C22.798,66.63 21.102,67.333 19.334,67.333C17.566,67.333 15.87,66.63 14.62,65.38C13.37,64.13 12.667,62.434 12.667,60.666C12.667,56.966 15.634,53.999 19.334,53.999ZM49.334,30.666L58.601,13.999L16.467,13.999L24.334,30.666L49.334,30.666Z" fill="#111111"/>
</svg>
