<svg width="66" height="68" viewBox="0 0 66 68" fill="none" xmlns="http://www.w3.org/2000/svg" xmlns:xlink="http://www.w3.org/1999/xlink">
<path d="M52.667,54C54.435,54 56.13,54.702 57.381,55.953C58.631,57.203 59.333,58.898 59.333,60.667C59.333,62.435 58.631,64.13 57.381,65.381C56.13,66.631 54.435,67.333 52.667,67.333C50.898,67.333 49.203,66.631 47.952,65.381C46.702,64.13 46,62.435 46,60.667C46,56.967 48.967,54 52.667,54ZM-0.667,0.667L10.233,0.667L13.367,7.333L62.667,7.333C63.551,7.333 64.398,7.685 65.024,8.31C65.649,8.935 66,9.783 66,10.667C66,11.233 65.833,11.8 65.6,12.333L53.667,33.9C52.533,35.933 50.333,37.333 47.833,37.333L23,37.333L20,42.767L19.9,43.167C19.9,43.388 19.988,43.6 20.144,43.756C20.3,43.912 20.512,44 20.733,44L59.333,44L59.333,50.667L19.333,50.667C17.565,50.667 15.869,49.964 14.619,48.714C13.369,47.464 12.667,45.768 12.667,44C12.667,42.833 12.967,41.733 13.467,40.8L18,32.633L6,7.333L-0.667,7.333L-0.667,0.667ZM19.333,54C21.101,54 22.797,54.702 24.047,55.953C25.297,57.203 26,58.898 26,60.667C26,62.435 25.297,64.13 24.047,65.381C22.797,66.631 21.101,67.333 19.333,67.333C17.565,67.333 15.869,66.631 14.619,65.381C13.369,64.13 12.667,62.435 12.667,60.667C12.667,56.967 15.633,54 19.333,54ZM49.333,30.667L58.6,14L16.467,14L24.333,30.667L49.333,30.667Z" fill="#111111"/>
</svg>
