<svg width="56" height="56" viewBox="0 0 56 56" fill="none" xmlns="http://www.w3.org/2000/svg" xmlns:xlink="http://www.w3.org/1999/xlink">
<path d="M52.95,55.179L32.077,34.306C30.41,35.726 28.493,36.825 26.327,37.603C24.16,38.38 21.982,38.769 19.793,38.769C14.456,38.769 9.938,36.921 6.24,33.226C2.542,29.528 0.693,25.011 0.693,19.676C0.693,14.34 2.54,9.821 6.233,6.119C9.929,2.415 14.444,0.563 19.78,0.563C25.118,0.563 29.638,2.411 33.34,6.109C37.042,9.807 38.893,14.326 38.893,19.666C38.893,21.981 38.483,24.222 37.663,26.389C36.841,28.556 35.763,30.409 34.43,31.949L55.303,52.819L52.95,55.179ZM19.793,35.432C24.216,35.432 27.95,33.91 30.997,30.866C34.041,27.821 35.563,24.087 35.563,19.662C35.563,15.24 34.041,11.507 30.997,8.463C27.952,5.418 24.219,3.896 19.797,3.896C15.374,3.896 11.64,5.418 8.593,8.463C5.549,11.507 4.027,15.24 4.027,19.662C4.027,24.085 5.549,27.818 8.593,30.862C11.638,33.907 15.371,35.432 19.793,35.432Z" fill="#111111"/>
</svg>
