<svg width="58" height="48" viewBox="0 0 58 48" fill="none" xmlns="http://www.w3.org/2000/svg" xmlns:xlink="http://www.w3.org/1999/xlink">
<path d="M18.328,19.637C19.646,18.352 19.673,16.241 18.388,14.923C17.103,13.605 14.992,13.578 13.674,14.863L18.328,19.637ZM2.668,30.25L0.341,27.863C-0.302,28.491 -0.665,29.351 -0.665,30.25C-0.665,31.149 -0.302,32.009 0.341,32.637L2.668,30.25ZM13.674,45.637C14.992,46.922 17.103,46.895 18.388,45.577C19.673,44.259 19.646,42.148 18.328,40.863L13.674,45.637ZM39.335,30.25L39.335,33.583L39.335,30.25ZM39.335,4.25L39.335,0.917L39.335,4.25ZM36.001,0.917C34.16,0.917 32.668,2.409 32.668,4.25C32.668,6.091 34.16,7.583 36.001,7.583L36.001,0.917ZM13.674,14.863L0.341,27.863L4.995,32.637L18.328,19.637L13.674,14.863ZM0.341,32.637L13.674,45.637L18.328,40.863L4.995,27.863L0.341,32.637ZM2.668,33.583L39.335,33.583L39.335,26.917L2.668,26.917L2.668,33.583ZM39.335,33.583C43.728,33.583 47.958,31.882 51.09,28.829L46.436,24.056C44.566,25.878 42.014,26.917 39.335,26.917L39.335,33.583ZM51.09,28.829C54.224,25.773 56.001,21.609 56.001,17.25L49.335,17.25C49.335,19.786 48.302,22.236 46.436,24.056L51.09,28.829ZM56.001,17.25C56.001,12.891 54.224,8.727 51.09,5.671L46.436,10.444C48.302,12.264 49.335,14.714 49.335,17.25L56.001,17.25ZM51.09,5.671C47.958,2.618 43.728,0.917 39.335,0.917L39.335,7.583C42.014,7.583 44.566,8.622 46.436,10.444L51.09,5.671ZM39.335,0.917L36.001,0.917L36.001,7.583L39.335,7.583L39.335,0.917Z" fill="#111111"/>
</svg>
