<svg width="68" height="68" viewBox="0 0 68 68" fill="none" xmlns="http://www.w3.org/2000/svg" xmlns:xlink="http://www.w3.org/1999/xlink">
<path d="M52.669,53.999C54.437,53.999 56.133,54.702 57.383,55.952C58.634,57.202 59.336,58.898 59.336,60.666C59.336,62.434 58.634,64.13 57.383,65.38C56.133,66.63 54.437,67.333 52.669,67.333C50.901,67.333 49.206,66.63 47.955,65.38C46.705,64.13 46.003,62.434 46.003,60.666C46.003,56.966 48.969,53.999 52.669,53.999ZM-0.664,0.666L10.236,0.666L13.369,7.333L62.669,7.333C63.553,7.333 64.401,7.684 65.026,8.309C65.651,8.934 66.003,9.782 66.003,10.666C66.003,11.233 65.836,11.799 65.603,12.333L53.669,33.899C52.536,35.933 50.336,37.333 47.836,37.333L23.003,37.333L20.003,42.766L19.903,43.166C19.903,43.387 19.99,43.599 20.147,43.755C20.303,43.912 20.515,43.999 20.736,43.999L59.336,43.999L59.336,50.666L19.336,50.666C17.568,50.666 15.872,49.964 14.622,48.713C13.372,47.463 12.669,45.767 12.669,43.999C12.669,42.833 12.969,41.733 13.469,40.799L18.003,32.633L6.003,7.333L-0.664,7.333L-0.664,0.666ZM19.336,53.999C21.104,53.999 22.8,54.702 24.05,55.952C25.3,57.202 26.003,58.898 26.003,60.666C26.003,62.434 25.3,64.13 24.05,65.38C22.8,66.63 21.104,67.333 19.336,67.333C17.568,67.333 15.872,66.63 14.622,65.38C13.372,64.13 12.669,62.434 12.669,60.666C12.669,56.966 15.636,53.999 19.336,53.999ZM49.336,30.666L58.603,13.999L16.469,13.999L24.336,30.666L49.336,30.666Z" fill="#111111"/>
</svg>
