<svg width="68" height="68" viewBox="0 0 68 68" fill="none" xmlns="http://www.w3.org/2000/svg" xmlns:xlink="http://www.w3.org/1999/xlink">
<path d="M52.669,54C54.437,54 56.133,54.702 57.383,55.953C58.634,57.203 59.336,58.898 59.336,60.667C59.336,62.435 58.634,64.13 57.383,65.381C56.133,66.631 54.437,67.333 52.669,67.333C50.901,67.333 49.206,66.631 47.955,65.381C46.705,64.13 46.003,62.435 46.003,60.667C46.003,56.967 48.969,54 52.669,54ZM-0.664,0.667L10.236,0.667L13.369,7.333L62.669,7.333C63.553,7.333 64.401,7.684 65.026,8.309C65.651,8.935 66.003,9.782 66.003,10.667C66.003,11.233 65.836,11.8 65.603,12.333L53.669,33.9C52.536,35.933 50.336,37.333 47.836,37.333L23.003,37.333L20.003,42.767L19.903,43.167C19.903,43.388 19.99,43.6 20.147,43.756C20.303,43.912 20.515,44 20.736,44L59.336,44L59.336,50.667L19.336,50.667C17.568,50.667 15.872,49.964 14.622,48.714C13.372,47.464 12.669,45.768 12.669,44C12.669,42.833 12.969,41.733 13.469,40.8L18.003,32.633L6.003,7.333L-0.664,7.333L-0.664,0.667ZM19.336,54C21.104,54 22.8,54.702 24.05,55.953C25.3,57.203 26.003,58.898 26.003,60.667C26.003,62.435 25.3,64.13 24.05,65.381C22.8,66.631 21.104,67.333 19.336,67.333C17.568,67.333 15.872,66.631 14.622,65.381C13.372,64.13 12.669,62.435 12.669,60.667C12.669,56.967 15.636,54 19.336,54ZM49.336,30.667L58.603,14L16.469,14L24.336,30.667L49.336,30.667Z" fill="#111111"/>
</svg>
