<svg width="66" height="68" viewBox="0 0 66 68" fill="none" xmlns="http://www.w3.org/2000/svg" xmlns:xlink="http://www.w3.org/1999/xlink">
<path d="M52.665,54C54.433,54 56.129,54.703 57.379,55.953C58.63,57.203 59.332,58.899 59.332,60.667C59.332,62.435 58.63,64.131 57.379,65.381C56.129,66.631 54.433,67.333 52.665,67.333C50.897,67.333 49.202,66.631 47.951,65.381C46.701,64.131 45.999,62.435 45.999,60.667C45.999,56.967 48.965,54 52.665,54ZM-0.668,0.667L10.232,0.667L13.365,7.333L62.665,7.333C63.549,7.333 64.397,7.685 65.022,8.31C65.647,8.935 65.999,9.783 65.999,10.667C65.999,11.233 65.832,11.8 65.599,12.333L53.665,33.9C52.532,35.933 50.332,37.333 47.832,37.333L22.999,37.333L19.999,42.767L19.899,43.167C19.899,43.388 19.986,43.6 20.143,43.756C20.299,43.912 20.511,44 20.732,44L59.332,44L59.332,50.667L19.332,50.667C17.564,50.667 15.868,49.964 14.618,48.714C13.368,47.464 12.665,45.768 12.665,44C12.665,42.833 12.965,41.733 13.465,40.8L17.999,32.633L5.999,7.333L-0.668,7.333L-0.668,0.667ZM19.332,54C21.1,54 22.796,54.703 24.046,55.953C25.296,57.203 25.999,58.899 25.999,60.667C25.999,62.435 25.296,64.131 24.046,65.381C22.796,66.631 21.1,67.333 19.332,67.333C17.564,67.333 15.868,66.631 14.618,65.381C13.368,64.131 12.665,62.435 12.665,60.667C12.665,56.967 15.632,54 19.332,54ZM49.332,30.667L58.599,14L16.465,14L24.332,30.667L49.332,30.667Z" fill="#111111"/>
</svg>
