<svg width="78" height="56" viewBox="0 0 78 56" fill="none" xmlns="http://www.w3.org/2000/svg" xmlns:xlink="http://www.w3.org/1999/xlink">
<path d="M24.836,22.531C26.234,21.333 26.396,19.228 25.198,17.831C23.999,16.433 21.895,16.271 20.497,17.469L24.836,22.531ZM4,36L1.831,33.469C1.092,34.102 0.667,35.027 0.667,36C0.667,36.973 1.092,37.898 1.831,38.531L4,36ZM20.497,54.531C21.895,55.729 23.999,55.567 25.198,54.169C26.396,52.772 26.234,50.667 24.836,49.469L20.497,54.531ZM55.333,36L55.333,39.333L55.333,36ZM50.667,0.667C48.826,0.667 47.333,2.159 47.333,4C47.333,5.841 48.826,7.333 50.667,7.333L50.667,0.667ZM20.497,17.469L1.831,33.469L6.169,38.531L24.836,22.531L20.497,17.469ZM1.831,38.531L20.497,54.531L24.836,49.469L6.169,33.469L1.831,38.531ZM4,39.333L55.333,39.333L55.333,32.667L4,32.667L4,39.333ZM55.333,39.333C61.016,39.333 66.551,37.403 70.702,33.845L66.363,28.783C63.513,31.226 59.552,32.667 55.333,32.667L55.333,39.333ZM70.702,33.845C74.869,30.273 77.333,25.308 77.333,20L70.667,20C70.667,23.179 69.198,26.354 66.363,28.783L70.702,33.845ZM77.333,20C77.333,14.692 74.869,9.727 70.702,6.155L66.363,11.217C69.198,13.646 70.667,16.821 70.667,20L77.333,20ZM70.702,6.155C66.551,2.597 61.016,0.667 55.333,0.667L55.333,7.333C59.552,7.333 63.513,8.774 66.363,11.217L70.702,6.155ZM55.333,0.667L50.667,0.667L50.667,7.333L55.333,7.333L55.333,0.667Z" fill="#111111"/>
</svg>
