<svg width="56" height="56" viewBox="0 0 56 56" fill="none" xmlns="http://www.w3.org/2000/svg" xmlns:xlink="http://www.w3.org/1999/xlink">
<path d="M52.948,55.18L32.075,34.307C30.408,35.727 28.491,36.825 26.325,37.603C24.158,38.381 21.98,38.77 19.791,38.77C14.454,38.77 9.936,36.922 6.238,33.227C2.54,29.529 0.691,25.012 0.691,19.677C0.691,14.341 2.538,9.822 6.231,6.12C9.927,2.415 14.443,0.563 19.778,0.563C25.116,0.563 29.636,2.412 33.338,6.11C37.04,9.808 38.891,14.327 38.891,19.667C38.891,21.982 38.481,24.223 37.661,26.39C36.839,28.557 35.761,30.41 34.428,31.95L55.301,52.82L52.948,55.18ZM19.791,35.433C24.214,35.433 27.948,33.911 30.995,30.867C34.039,27.822 35.561,24.088 35.561,19.663C35.561,15.241 34.039,11.508 30.995,8.463C27.95,5.419 24.217,3.897 19.795,3.897C15.373,3.897 11.638,5.419 8.591,8.463C5.547,11.508 4.025,15.241 4.025,19.663C4.025,24.085 5.547,27.819 8.591,30.863C11.636,33.908 15.369,35.433 19.791,35.433Z" fill="#111111"/>
</svg>
