<svg width="66" height="68" viewBox="0 0 66 68" fill="none" xmlns="http://www.w3.org/2000/svg" xmlns:xlink="http://www.w3.org/1999/xlink">
<path d="M52.667,54C54.435,54 56.131,54.703 57.381,55.953C58.632,57.203 59.334,58.899 59.334,60.667C59.334,62.435 58.632,64.131 57.381,65.381C56.131,66.631 54.435,67.334 52.667,67.334C50.899,67.334 49.204,66.631 47.953,65.381C46.703,64.131 46.001,62.435 46.001,60.667C46.001,56.967 48.967,54 52.667,54ZM-0.666,0.667L10.234,0.667L13.367,7.334L62.667,7.334C63.551,7.334 64.399,7.685 65.024,8.31C65.649,8.935 66.001,9.783 66.001,10.667C66.001,11.234 65.834,11.8 65.601,12.334L53.667,33.9C52.534,35.934 50.334,37.334 47.834,37.334L23.001,37.334L20.001,42.767L19.901,43.167C19.901,43.388 19.988,43.6 20.145,43.756C20.301,43.913 20.513,44 20.734,44L59.334,44L59.334,50.667L19.334,50.667C17.566,50.667 15.87,49.965 14.62,48.714C13.37,47.464 12.667,45.768 12.667,44C12.667,42.834 12.967,41.734 13.467,40.8L18.001,32.634L6.001,7.334L-0.666,7.334L-0.666,0.667ZM19.334,54C21.102,54 22.798,54.703 24.048,55.953C25.298,57.203 26.001,58.899 26.001,60.667C26.001,62.435 25.298,64.131 24.048,65.381C22.798,66.631 21.102,67.334 19.334,67.334C17.566,67.334 15.87,66.631 14.62,65.381C13.37,64.131 12.667,62.435 12.667,60.667C12.667,56.967 15.634,54 19.334,54ZM49.334,30.667L58.601,14L16.467,14L24.334,30.667L49.334,30.667Z" fill="#111111"/>
</svg>
