<svg width="66" height="68" viewBox="0 0 66 68" fill="none" xmlns="http://www.w3.org/2000/svg" xmlns:xlink="http://www.w3.org/1999/xlink">
<path d="M52.665,53.999C54.433,53.999 56.129,54.702 57.379,55.952C58.63,57.202 59.332,58.898 59.332,60.666C59.332,62.434 58.63,64.13 57.379,65.38C56.129,66.63 54.433,67.333 52.665,67.333C50.897,67.333 49.202,66.63 47.951,65.38C46.701,64.13 45.999,62.434 45.999,60.666C45.999,56.966 48.965,53.999 52.665,53.999ZM-0.668,0.666L10.232,0.666L13.365,7.333L62.665,7.333C63.549,7.333 64.397,7.684 65.022,8.309C65.647,8.934 65.999,9.782 65.999,10.666C65.999,11.233 65.832,11.799 65.599,12.333L53.665,33.899C52.532,35.933 50.332,37.333 47.832,37.333L22.999,37.333L19.999,42.766L19.899,43.166C19.899,43.387 19.986,43.599 20.143,43.755C20.299,43.912 20.511,43.999 20.732,43.999L59.332,43.999L59.332,50.666L19.332,50.666C17.564,50.666 15.868,49.964 14.618,48.713C13.368,47.463 12.665,45.767 12.665,43.999C12.665,42.833 12.965,41.733 13.465,40.799L17.999,32.633L5.999,7.333L-0.668,7.333L-0.668,0.666ZM19.332,53.999C21.1,53.999 22.796,54.702 24.046,55.952C25.296,57.202 25.999,58.898 25.999,60.666C25.999,62.434 25.296,64.13 24.046,65.38C22.796,66.63 21.1,67.333 19.332,67.333C17.564,67.333 15.868,66.63 14.618,65.38C13.368,64.13 12.665,62.434 12.665,60.666C12.665,56.966 15.632,53.999 19.332,53.999ZM49.332,30.666L58.599,13.999L16.465,13.999L24.332,30.666L49.332,30.666Z" fill="#111111"/>
</svg>
