<svg width="58" height="54" viewBox="0 0 58 54" fill="none" xmlns="http://www.w3.org/2000/svg" xmlns:xlink="http://www.w3.org/1999/xlink">
<path d="M19.849,21.521C21.057,20.131 20.91,18.026 19.521,16.818C18.131,15.61 16.026,15.757 14.818,17.146L19.849,21.521ZM4,34.667L1.485,32.479C0.394,33.734 0.394,35.6 1.485,36.854L4,34.667ZM14.818,52.187C16.026,53.576 18.131,53.723 19.521,52.515C20.91,51.307 21.057,49.202 19.849,47.813L14.818,52.187ZM40.667,34.667L40.667,38L40.667,34.667ZM40.667,4L40.667,0.667L40.667,4ZM37.333,0.667C35.492,0.667 34,2.159 34,4C34,5.841 35.492,7.333 37.333,7.333L37.333,0.667ZM14.818,17.146L1.485,32.479L6.515,36.854L19.849,21.521L14.818,17.146ZM1.485,36.854L14.818,52.187L19.849,47.813L6.515,32.479L1.485,36.854ZM4,38L40.667,38L40.667,31.333L4,31.333L4,38ZM40.667,38C45.249,38 49.532,35.903 52.61,32.363L47.579,27.988C45.656,30.2 43.157,31.333 40.667,31.333L40.667,38ZM52.61,32.363C55.675,28.838 57.333,24.145 57.333,19.333L50.667,19.333C50.667,22.655 49.515,25.762 47.579,27.988L52.61,32.363ZM57.333,19.333C57.333,14.521 55.675,9.829 52.61,6.304L47.579,10.678C49.515,12.904 50.667,16.012 50.667,19.333L57.333,19.333ZM52.61,6.304C49.532,2.764 45.249,0.667 40.667,0.667L40.667,7.333C43.157,7.333 45.656,8.467 47.579,10.678L52.61,6.304ZM40.667,0.667L37.333,0.667L37.333,7.333L40.667,7.333L40.667,0.667Z" fill="#111111"/>
</svg>
