<svg width="56" height="56" viewBox="0 0 56 56" fill="none" xmlns="http://www.w3.org/2000/svg" xmlns:xlink="http://www.w3.org/1999/xlink">
<path d="M52.952,55.18L32.079,34.307C30.412,35.727 28.495,36.826 26.329,37.603C24.162,38.381 21.984,38.77 19.795,38.77C14.458,38.77 9.94,36.922 6.242,33.227C2.544,29.529 0.695,25.012 0.695,19.677C0.695,14.341 2.542,9.822 6.235,6.12C9.931,2.416 14.446,0.563 19.782,0.563C25.12,0.563 29.64,2.412 33.342,6.11C37.044,9.808 38.895,14.327 38.895,19.667C38.895,21.982 38.485,24.223 37.665,26.39C36.843,28.557 35.765,30.41 34.432,31.95L55.305,52.82L52.952,55.18ZM19.795,35.433C24.218,35.433 27.952,33.911 30.999,30.867C34.043,27.822 35.565,24.088 35.565,19.663C35.565,15.241 34.043,11.508 30.999,8.463C27.954,5.419 24.221,3.897 19.799,3.897C15.376,3.897 11.642,5.419 8.595,8.463C5.551,11.508 4.029,15.241 4.029,19.663C4.029,24.086 5.551,27.819 8.595,30.863C11.64,33.908 15.373,35.433 19.795,35.433Z" fill="#111111"/>
</svg>
