<svg width="56" height="46" viewBox="0 0 56 46" fill="none" xmlns="http://www.w3.org/2000/svg" xmlns:xlink="http://www.w3.org/1999/xlink">
<path d="M18.357,18.357C19.659,17.056 19.659,14.945 18.357,13.643C17.055,12.342 14.945,12.342 13.643,13.643L18.357,18.357ZM2.667,29.334L0.309,26.977C-0.992,28.278 -0.992,30.389 0.309,31.691L2.667,29.334ZM13.643,45.024C14.945,46.326 17.055,46.326 18.357,45.024C19.659,43.722 19.659,41.612 18.357,40.31L13.643,45.024ZM39.333,29.334L39.333,32.667L39.333,29.334ZM39.333,2.667L39.333,-0.666L39.333,2.667ZM36,-0.666C34.159,-0.666 32.667,0.826 32.667,2.667C32.667,4.508 34.159,6 36,6L36,-0.666ZM13.643,13.643L0.309,26.977L5.024,31.691L18.357,18.357L13.643,13.643ZM0.309,31.691L13.643,45.024L18.357,40.31L5.024,26.977L0.309,31.691ZM2.667,32.667L39.333,32.667L39.333,26L2.667,26L2.667,32.667ZM39.333,32.667C43.754,32.667 47.993,30.911 51.118,27.785L46.404,23.071C44.529,24.947 41.985,26 39.333,26L39.333,32.667ZM51.118,27.785C54.244,24.66 56,20.421 56,16L49.333,16C49.333,18.652 48.28,21.196 46.404,23.071L51.118,27.785ZM56,16C56,11.58 54.244,7.341 51.118,4.215L46.404,8.929C48.28,10.805 49.333,13.348 49.333,16L56,16ZM51.118,4.215C47.993,1.09 43.754,-0.666 39.333,-0.666L39.333,6C41.985,6 44.529,7.054 46.404,8.929L51.118,4.215ZM39.333,-0.666L36,-0.666L36,6L39.333,6L39.333,-0.666Z" fill="#111111"/>
</svg>
