<svg width="106" height="106" viewBox="0 0 106 106" fill="none" xmlns="http://www.w3.org/2000/svg" xmlns:xlink="http://www.w3.org/1999/xlink">
<path d="M-0.501,52C-0.501,62.384 2.578,72.534 8.347,81.167C14.116,89.801 22.315,96.53 31.908,100.504C41.501,104.477 52.057,105.517 62.241,103.491C72.425,101.465 81.78,96.465 89.122,89.123C96.465,81.781 101.465,72.426 103.49,62.242C105.516,52.058 104.476,41.502 100.503,31.909C96.529,22.316 89.8,14.117 81.167,8.348C72.533,2.579 62.383,-0.5 51.999,-0.5C38.075,-0.5 24.722,5.031 14.876,14.877C5.031,24.723 -0.501,38.076 -0.501,52ZM21.999,48.25L67.562,48.25L46.637,27.224L51.999,22L81.999,52L51.999,82L46.637,76.649L67.562,55.75L21.999,55.75L21.999,48.25Z" transform="rotate(177.305 51.999 52)" fill="#111111"/>
</svg>
