<svg width="56" height="56" viewBox="0 0 56 56" fill="none" xmlns="http://www.w3.org/2000/svg" xmlns:xlink="http://www.w3.org/1999/xlink">
<path d="M52.948,55.179L32.075,34.306C30.408,35.726 28.491,36.825 26.325,37.603C24.158,38.38 21.98,38.769 19.791,38.769C14.454,38.769 9.936,36.921 6.238,33.226C2.54,29.528 0.691,25.011 0.691,19.676C0.691,14.34 2.538,9.821 6.231,6.119C9.927,2.415 14.443,0.563 19.778,0.563C25.116,0.563 29.636,2.411 33.338,6.109C37.04,9.807 38.891,14.326 38.891,19.666C38.891,21.981 38.481,24.222 37.661,26.389C36.839,28.556 35.761,30.409 34.428,31.949L55.301,52.819L52.948,55.179ZM19.791,35.432C24.214,35.432 27.948,33.91 30.995,30.866C34.039,27.821 35.561,24.087 35.561,19.662C35.561,15.24 34.039,11.507 30.995,8.463C27.95,5.418 24.217,3.896 19.795,3.896C15.373,3.896 11.638,5.418 8.591,8.463C5.547,11.507 4.025,15.24 4.025,19.662C4.025,24.085 5.547,27.818 8.591,30.862C11.636,33.907 15.369,35.432 19.791,35.432Z" fill="#111111"/>
</svg>
