<svg width="60" height="54" viewBox="0 0 60 54" fill="none" xmlns="http://www.w3.org/2000/svg" xmlns:xlink="http://www.w3.org/1999/xlink">
<path d="M16.143,0C12.95,0 9.828,0.947 7.173,2.72C4.518,4.494 2.449,7.016 1.227,9.966C0.005,12.916 -0.315,16.162 0.308,19.294C0.931,22.426 2.469,25.302 4.727,27.56L28.583,51.416C28.769,51.602 28.989,51.75 29.232,51.851C29.475,51.952 29.736,52.004 29.999,52.004C30.262,52.004 30.523,51.952 30.765,51.851C31.008,51.75 31.229,51.602 31.415,51.416L55.271,27.556C58.217,24.512 59.848,20.432 59.813,16.197C59.779,11.961 58.081,7.909 55.085,4.913C52.09,1.918 48.038,0.22 43.802,0.186C39.566,0.151 35.487,1.782 32.443,4.728L29.999,7.168L27.559,4.728C26.059,3.228 24.279,2.039 22.319,1.228C20.36,0.417 18.264,-0.001 16.143,0Z" fill="#F24E1E"/>
</svg>
