<svg width="58" height="50" viewBox="0 0 58 50" fill="none" xmlns="http://www.w3.org/2000/svg" xmlns:xlink="http://www.w3.org/1999/xlink">
<path d="M18.468,19.242C19.706,17.88 19.606,15.772 18.244,14.534C16.881,13.295 14.773,13.396 13.535,14.758L18.468,19.242ZM2.668,31.667L0.202,29.424C-0.954,30.696 -0.954,32.638 0.202,33.909L2.668,31.667ZM13.535,48.576C14.773,49.938 16.881,50.038 18.244,48.8C19.606,47.562 19.706,45.453 18.468,44.091L13.535,48.576ZM39.335,31.667L39.335,35L39.335,31.667ZM39.335,2.333L39.335,-1L39.335,2.333ZM36.001,-1C34.16,-1 32.668,0.492 32.668,2.333C32.668,4.174 34.16,5.667 36.001,5.667L36.001,-1ZM13.535,14.758L0.202,29.424L5.134,33.909L18.468,19.242L13.535,14.758ZM0.202,33.909L13.535,48.576L18.468,44.091L5.134,29.424L0.202,33.909ZM2.668,35L39.335,35L39.335,28.333L2.668,28.333L2.668,35ZM39.335,35C43.863,35 48.134,33.018 51.229,29.613L46.296,25.129C44.391,27.225 41.879,28.333 39.335,28.333L39.335,35ZM51.229,29.613C54.315,26.219 56.001,21.677 56.001,17L49.335,17C49.335,20.103 48.211,23.022 46.296,25.129L51.229,29.613ZM56.001,17C56.001,12.323 54.315,7.782 51.229,4.387L46.296,8.871C48.211,10.978 49.335,13.897 49.335,17L56.001,17ZM51.229,4.387C48.134,0.982 43.863,-1 39.335,-1L39.335,5.667C41.879,5.667 44.391,6.776 46.296,8.871L51.229,4.387ZM39.335,-1L36.001,-1L36.001,5.667L39.335,5.667L39.335,-1Z" fill="#111111"/>
</svg>
