<svg width="56" height="56" viewBox="0 0 56 56" fill="none" xmlns="http://www.w3.org/2000/svg" xmlns:xlink="http://www.w3.org/1999/xlink">
<path d="M52.952,55.179L32.079,34.306C30.412,35.726 28.495,36.825 26.329,37.603C24.162,38.38 21.984,38.769 19.795,38.769C14.458,38.769 9.94,36.921 6.242,33.226C2.544,29.528 0.695,25.011 0.695,19.676C0.695,14.34 2.542,9.821 6.235,6.119C9.931,2.415 14.446,0.563 19.782,0.563C25.12,0.563 29.64,2.411 33.342,6.109C37.044,9.807 38.895,14.326 38.895,19.666C38.895,21.981 38.485,24.222 37.665,26.389C36.843,28.556 35.765,30.409 34.432,31.949L55.305,52.819L52.952,55.179ZM19.795,35.432C24.218,35.432 27.952,33.91 30.999,30.866C34.043,27.821 35.565,24.087 35.565,19.662C35.565,15.24 34.043,11.507 30.999,8.463C27.954,5.418 24.221,3.896 19.799,3.896C15.376,3.896 11.642,5.418 8.595,8.463C5.551,11.507 4.029,15.24 4.029,19.662C4.029,24.085 5.551,27.818 8.595,30.862C11.64,33.907 15.373,35.432 19.795,35.432Z" fill="#111111"/>
</svg>
