<svg width="60" height="60" viewBox="0 0 60 60" fill="none" xmlns="http://www.w3.org/2000/svg" xmlns:xlink="http://www.w3.org/1999/xlink">
<path d="M16.667,13.333C16.667,9.797 18.071,6.406 20.572,3.905C23.072,1.405 26.464,0 30,0C33.536,0 36.928,1.405 39.428,3.905C41.929,6.406 43.333,9.797 43.333,13.333C43.333,16.87 41.929,20.261 39.428,22.761C36.928,25.262 33.536,26.667 30,26.667C26.464,26.667 23.072,25.262 20.572,22.761C18.071,20.261 16.667,16.87 16.667,13.333ZM16.667,33.333C12.246,33.333 8.007,35.089 4.882,38.215C1.756,41.34 0,45.58 0,50C0,52.652 1.054,55.196 2.929,57.071C4.804,58.946 7.348,60 10,60L50,60C52.652,60 55.196,58.946 57.071,57.071C58.946,55.196 60,52.652 60,50C60,45.58 58.244,41.34 55.118,38.215C51.993,35.089 47.754,33.333 43.333,33.333L16.667,33.333Z" clip-rule="evenodd" fill-rule="evenodd" fill="#111111"/>
</svg>
