<svg width="66" height="68" viewBox="0 0 66 68" fill="none" xmlns="http://www.w3.org/2000/svg" xmlns:xlink="http://www.w3.org/1999/xlink">
<path d="M52.666,53.999C54.434,53.999 56.13,54.702 57.38,55.952C58.631,57.202 59.333,58.898 59.333,60.666C59.333,62.434 58.631,64.13 57.38,65.38C56.13,66.63 54.434,67.333 52.666,67.333C50.898,67.333 49.203,66.63 47.952,65.38C46.702,64.13 46,62.434 46,60.666C46,56.966 48.966,53.999 52.666,53.999ZM-0.667,0.666L10.233,0.666L13.366,7.333L62.666,7.333C63.55,7.333 64.398,7.684 65.023,8.309C65.648,8.934 66,9.782 66,10.666C66,11.233 65.833,11.799 65.6,12.333L53.666,33.899C52.533,35.933 50.333,37.333 47.833,37.333L23,37.333L20,42.766L19.9,43.166C19.9,43.387 19.987,43.599 20.144,43.755C20.3,43.912 20.512,43.999 20.733,43.999L59.333,43.999L59.333,50.666L19.333,50.666C17.565,50.666 15.869,49.964 14.619,48.713C13.369,47.463 12.666,45.767 12.666,43.999C12.666,42.833 12.966,41.733 13.466,40.799L18,32.633L6,7.333L-0.667,7.333L-0.667,0.666ZM19.333,53.999C21.101,53.999 22.797,54.702 24.047,55.952C25.297,57.202 26,58.898 26,60.666C26,62.434 25.297,64.13 24.047,65.38C22.797,66.63 21.101,67.333 19.333,67.333C17.565,67.333 15.869,66.63 14.619,65.38C13.369,64.13 12.666,62.434 12.666,60.666C12.666,56.966 15.633,53.999 19.333,53.999ZM49.333,30.666L58.6,13.999L16.466,13.999L24.333,30.666L49.333,30.666Z" fill="#111111"/>
</svg>
