<svg width="58" height="46" viewBox="0 0 58 46" fill="none" xmlns="http://www.w3.org/2000/svg" xmlns:xlink="http://www.w3.org/1999/xlink">
<path d="M18.358,18.357C19.66,17.055 19.66,14.945 18.358,13.643C17.057,12.341 14.946,12.341 13.644,13.643L18.358,18.357ZM2.668,29.333L0.311,26.976C-0.991,28.278 -0.991,30.389 0.311,31.69L2.668,29.333ZM13.644,45.024C14.946,46.325 17.057,46.325 18.358,45.024C19.66,43.722 19.66,41.611 18.358,40.31L13.644,45.024ZM39.335,29.333L39.335,32.667L39.335,29.333ZM39.335,2.667L39.335,-0.667L39.335,2.667ZM36.001,-0.667C34.16,-0.667 32.668,0.826 32.668,2.667C32.668,4.508 34.16,6 36.001,6L36.001,-0.667ZM13.644,13.643L0.311,26.976L5.025,31.69L18.358,18.357L13.644,13.643ZM0.311,31.69L13.644,45.024L18.358,40.31L5.025,26.976L0.311,31.69ZM2.668,32.667L39.335,32.667L39.335,26L2.668,26L2.668,32.667ZM39.335,32.667C43.755,32.667 47.994,30.911 51.12,27.785L46.406,23.071C44.53,24.946 41.987,26 39.335,26L39.335,32.667ZM51.12,27.785C54.245,24.659 56.001,20.42 56.001,16L49.335,16C49.335,18.652 48.281,21.196 46.406,23.071L51.12,27.785ZM56.001,16C56.001,11.58 54.245,7.34 51.12,4.215L46.406,8.929C48.281,10.804 49.335,13.348 49.335,16L56.001,16ZM51.12,4.215C47.994,1.089 43.755,-0.667 39.335,-0.667L39.335,6C41.987,6 44.53,7.054 46.406,8.929L51.12,4.215ZM39.335,-0.667L36.001,-0.667L36.001,6L39.335,6L39.335,-0.667Z" fill="#111111"/>
</svg>
